PathFileType	4	(X/Y/Z)	S01_0004_Gait_markers.trc
DataRate	CameraRate	NumFrames	NumMarkers	Units	OrigDataRate	OrigDataStartFrame	OrigNumFrames
250.000000	250.000000	4	54	mm	250.000000	160	320
Frame#	Time	HEAD_ANT			R_HEAD			L_HEAD			C7			R_BACK			L_BACK			STERNUM			R_ACROMION			R_HUM_PROX			R_HUM_ANT			R_HUM_POST			R_ELBOW_LAT			R_ELBOW_MED			R_FOREARM			R_WIRST_LAT			R_WRITS_MED			R_HAND			L_ACROMION			L_HUM_PROX			L_HUM_ANT			L_HUM_POST			L_ELBOW_LAT			L_ELBOW_MED			L_FOREARM			L_WRIST_LAT			L_WIRST_MED			L_HAND			R_ILIAC			SACRUM			L_ILIAC			R_GTROCH			R_THIGH__1			R_THIGH_2			R_THIGH_3			R_THIGH_4			R_SHANK_1			R_SHANK_2			R_SHANK_3			R_SHANK_4			R_HEEL			R_FOOT_LAT			R_FOOT_MED			L_GTROCH			L_THIGH_1			L_THIGH_2			L_THIGH_3			L_THIGH_4			L_SHANK_1			L_SHANK_2			L_SHANK_3			L_SHANK_4			L_HEEL			L_FOOT_LAT			L_FOOT_MED			
		X1	Y1	Z1	X2	Y2	Z2	X3	Y3	Z3	X4	Y4	Z4	X5	Y5	Z5	X6	Y6	Z6	X7	Y7	Z7	X8	Y8	Z8	X9	Y9	Z9	X10	Y10	Z10	X11	Y11	Z11	X12	Y12	Z12	X13	Y13	Z13	X14	Y14	Z14	X15	Y15	Z15	X16	Y16	Z16	X17	Y17	Z17	X18	Y18	Z18	X19	Y19	Z19	X20	Y20	Z20	X21	Y21	Z21	X22	Y22	Z22	X23	Y23	Z23	X24	Y24	Z24	X25	Y25	Z25	X26	Y26	Z26	X27	Y27	Z27	X28	Y28	Z28	X29	Y29	Z29	X30	Y30	Z30	X31	Y31	Z31	X32	Y32	Z32	X33	Y33	Z33	X34	Y34	Z34	X35	Y35	Z35	X36	Y36	Z36	X37	Y37	Z37	X38	Y38	Z38	X39	Y39	Z39	X40	Y40	Z40	X41	Y41	Z41	X42	Y42	Z42	X43	Y43	Z43	X44	Y44	Z44	X45	Y45	Z45	X46	Y46	Z46	X47	Y47	Z47	X48	Y48	Z48	X49	Y49	Z49	X50	Y50	Z50	X51	Y51	Z51	X52	Y52	Z52	X53	Y53	Z53	X54	Y54	Z54	

161	0.64	1047.558715820312	1713.585693359375	-368.2965698242184	991.30908203125	1667.474975585938	-286.5326232910152	990.803955078125	1657.2734375	-433.9201354980465	857.3843994140625	1492.756713867188	-347.6889953613278	780.3760986328125	1299.203125	-276.946838378906	775.0296630859375	1299.965942382812	-407.6527404785153	1030.892822265625	1324.669555664062	-356.6683654785153	945.5975952148438	1437.532958984375	-180.1108398437497	932.5361938476562	1274.880249023438	-93.24234771728487	1001.544616699219	1195.667602539062	-106.5086288452146	884.614501953125	1185.319458007812	-72.52427673339817	945.140869140625	1082.984741210938	-81.85762023925757	902.3668212890625	1077.568481445312	-154.0192718505857	1072.964599609375	921.1212158203125	-124.8628921508787	1109.473022460938	866.28466796875	-180.1027832031248	1060.605834960938	828.9869995117188	-125.599655151367	1145.015747070312	780.5537719726562	-135.4319000244139	924.229736328125	1442.685668945313	-520.5173950195309	877.9238891601562	1274.2412109375	-606.0663452148435	933.7222290039062	1189.513305664063	-612.9093627929685	809.9771728515625	1200.374755859375	-618.9406127929685	861.8399047851562	1090.6025390625	-628.7938232421873	815.330078125	1092.164184570313	-567.161926269531	943.7103271484375	904.9124755859376	-629.3164062499998	975.501953125	839.3037719726564	-582.303283691406	917.9466552734375	825.6080322265626	-637.4901123046873	985.282958984375	759.4054565429689	-636.2874145507811	922.737060546875	1041.4521484375	-175.918273925781	801.4625854492188	1014.593933105469	-351.2887268066404	927.4857788085938	1037.664916992188	-520.6391601562498	856.397216796875	905.4766845703125	-165.8862915039061	819.4170532226562	640.0623779296875	-187.307891845703	877.6047973632812	640.0023193359375	-179.6386718749999	855.1124267578125	539.3214721679688	-211.7187652587889	794.696044921875	562.9451904296875	-207.2143554687499	667.7713012695312	380.7538757324219	-203.2626342773437	699.3499145507812	332.0024108886719	-218.6259002685546	645.0806884765625	266.5963439941407	-237.7964935302734	598.3889770507812	308.7847900390626	-225.9389038085937	442.7264709472656	173.0630493164063	-304.2283935546874	541.4097900390625	31.14226913452154	-241.5247802734375	591.757568359375	28.31661987304695	-339.6504821777344	914.382568359375	927.8063354492189	-529.4559326171873	1098.08837890625	686.1154174804689	-504.640899658203	1043.606079101562	683.3811035156251	-528.5375976562499	1065.521606445312	582.4999389648439	-496.9932556152343	1120.83154296875	609.9495239257814	-479.2758789062499	1159.427856445312	336.9164123535157	-482.7013244628906	1108.140380859375	304.611541748047	-487.7729492187499	1121.415893554688	219.3877410888673	-471.9480590820312	1181.733520507812	238.3787078857423	-461.3229064941406	1113.257202148438	35.13040161132822	-402.5337524414062	1292.934204101562	28.14083862304698	-461.3318786621094	1322.770141601562	54.31930541992195	-365.4955444335938	
162	0.644	1053.64453125	1714.39990234375	-369.545989990234	997.2623291015625	1668.246215820312	-287.7097778320309	997.0349731445312	1657.952026367188	-435.0657043457028	863.8121337890625	1493.732666015625	-348.7835693359372	787.1854858398438	1300.13525390625	-277.5614624023435	781.2306518554688	1300.754516601562	-408.5744934082028	1037.271484375	1325.43017578125	-357.8258056640622	952.200927734375	1438.409912109375	-180.9777526855466	938.298828125	1275.593505859375	-94.2456741333005	1007.433532714844	1196.093872070312	-106.8840484619138	890.2774047851562	1186.375854492188	-73.60665130615207	950.4794311523438	1083.779174804688	-82.98239898681616	907.9174194335938	1078.572875976562	-155.2999114990232	1077.236206054688	921.093505859375	-125.3551635742186	1113.505981445312	865.8450317382812	-180.2886657714842	1064.244506835938	828.8786010742188	-125.8105468749998	1148.411376953125	779.9606323242188	-135.2367706298826	930.830322265625	1443.121826171875	-521.4582519531247	884.172607421875	1274.521484375	-606.6810302734373	940.2671508789062	1189.673706054688	-612.3029785156248	816.42236328125	1200.68994140625	-619.5060424804685	868.3990478515625	1090.93115234375	-629.0079956054685	821.95654296875	1092.696533203125	-567.642883300781	950.2923583984375	905.1977539062501	-629.509826660156	982.1279907226562	839.5666503906251	-582.5289916992185	924.4181518554688	825.8707275390626	-637.6702880859373	991.8784790039062	759.7183227539064	-636.4718627929686	929.64892578125	1041.849365234375	-176.4986572265623	807.834228515625	1015.284606933594	-351.4611816406248	932.9598999023438	1038.73291015625	-521.313049316406	862.9603271484375	905.3533935546875	-166.2271728515623	827.116943359375	639.77783203125	-187.393585205078	885.4242553710938	640.15625	-180.006622314453	863.3211669921875	539.0073852539062	-211.5413360595702	803.06396484375	562.6583862304688	-206.7678680419921	674.9591674804688	382.0681762695313	-203.0106201171874	706.0350952148438	332.8553161621094	-217.9873657226562	651.0427856445312	267.8019409179688	-237.1267700195312	604.7838134765625	310.8807067871094	-225.3047943115234	448.3601684570312	177.247299194336	-303.8590087890624	542.4904174804688	32.04818725585943	-241.7065277099609	591.922607421875	28.43583488464363	-339.7758178710938	920.6961059570312	929.7945556640626	-529.6656494140623	1104.918334960938	687.5425415039064	-504.5458068847655	1050.833740234375	684.9196777343751	-529.2305297851561	1072.984130859375	583.9461669921876	-497.6960144042968	1127.852905273438	611.5138549804689	-479.2833251953124	1163.990356445312	336.7959289550782	-483.1634216308593	1112.284057617188	304.954559326172	-488.6159057617187	1124.131103515625	220.0118865966798	-473.4453430175781	1184.91748046875	238.0062103271486	-461.5267639160156	1113.8623046875	35.62985610961923	-402.6498413085938	1293.721435546875	26.68598556518565	-460.8984985351562	1323.331787109375	52.3345260620118	-364.6844177246094	
163	0.648	1059.732543945312	1715.0283203125	-370.7442932128902	1003.283142089844	1668.923583984375	-288.8339843749996	1003.181030273438	1658.679809570312	-436.1286315917965	870.3045654296875	1494.509765625	-349.5664367675778	793.1842651367188	1300.503540039062	-278.1212158203122	787.4910278320312	1301.34912109375	-409.4668884277341	1043.562622070312	1326.302490234375	-358.5034484863278	958.8423461914062	1439.372924804688	-181.949295043945	944.31298828125	1276.732788085938	-95.16082763671847	1013.213806152344	1196.96875	-107.6466217041013	895.8759765625	1187.31494140625	-74.74391937255832	955.6427612304688	1084.767700195312	-83.81781768798804	913.4322509765625	1079.842529296875	-156.4738464355466	1081.587036132812	921.0279541015625	-125.557777404785	1117.71484375	865.4346923828125	-180.439743041992	1067.7529296875	828.7781372070312	-125.9525451660154	1151.725952148438	779.5944213867188	-134.1374053955076	937.1771850585938	1443.562255859375	-522.3328857421872	890.7753295898438	1274.963500976563	-607.3244628906248	946.90478515625	1190.254516601563	-612.8180541992185	823.0344848632812	1201.262451171875	-619.8135986328123	871.5543212890625	1092.687744140625	-630.6622314453123	828.60009765625	1093.390380859375	-567.852111816406	956.86767578125	905.9459228515626	-629.5698242187498	988.8225708007812	839.9572753906251	-582.7369384765623	931.0009765625	826.2929687500001	-637.6339111328123	998.489990234375	760.2740478515626	-636.7243041992186	936.6588745117188	1042.138671875	-176.9382629394529	814.17529296875	1015.841369628906	-351.6500549316404	936.3974609375	1039.943481445313	-522.179504394531	869.4257202148438	905.3746948242188	-166.5534515380857	835.0039672851562	639.3584594726562	-187.3648223876952	893.4475708007812	640.035888671875	-179.7223205566405	871.7374877929688	538.8150634765625	-211.2702178955077	811.4759521484375	562.4375	-206.3473052978514	682.20947265625	383.3295288085938	-202.7216339111327	712.81640625	333.6779479980469	-217.243194580078	657.19140625	269.2704772949219	-236.3563537597656	611.3220825195312	312.6309509277344	-225.0492858886718	454.4423828125	181.3303527832032	-303.6358032226562	543.2368774414062	33.00760269165045	-242.2137298583984	592.2164916992188	28.66923522949226	-339.8173522949219	926.7687377929688	931.5344848632814	-529.6642456054685	1111.473510742188	688.7406616210939	-504.4815673828123	1057.83837890625	686.1903076171876	-529.8142089843749	1079.841796875	584.9562377929689	-498.8404541015624	1134.578857421875	612.5915527343751	-479.5512390136718	1168.360229492188	336.6145935058595	-483.2781677246093	1116.259033203125	305.5571289062501	-489.1745300292968	1127.077514648438	220.2784271240236	-473.8906860351562	1187.953369140625	237.5794372558595	-461.5084228515624	1114.543212890625	36.07928466796884	-402.7953186035156	1294.51123046875	25.27214241027842	-460.580810546875	1323.99072265625	50.17258071899422	-363.9992370605469	
164	0.652	1065.843383789062	1715.58349609375	-371.8524475097652	1009.427368164062	1669.630737304688	-290.050384521484	1009.233215332031	1659.341430664062	-437.3818054199215	876.6267700195312	1495.311645507812	-350.6873168945309	799.5646362304688	1301.233032226562	-278.5383605957028	793.8018798828125	1301.9072265625	-410.5526428222653	1049.861694335938	1327.112915039062	-359.3811035156247	965.4324340820312	1440.328979492188	-182.9830627441403	950.2078857421875	1277.45263671875	-95.83316040039034	1018.794494628906	1197.869995117188	-108.7070541381833	901.5005493164062	1188.539184570312	-75.9916687011716	960.7579345703125	1085.709716796875	-84.84034729003882	919.16748046875	1081.130249023438	-157.5091400146482	1085.897216796875	921.117431640625	-125.9597167968748	1121.931030273438	865.22265625	-180.5905456542967	1071.245483398438	828.9014282226562	-126.2272872924803	1154.880615234375	778.9653930664062	-133.9770050048826	943.5252685546875	1444.102905273438	-523.3124999999997	897.5755004882812	1275.554443359375	-607.9406127929685	953.5643310546875	1191.000366210938	-614.4240722656248	829.6490478515625	1201.673461914063	-620.3039550781248	878.3399658203125	1093.13916015625	-631.1828613281248	835.2374877929688	1093.87939453125	-568.2589111328123	963.55859375	906.5660400390626	-629.6408691406248	995.55712890625	840.5292358398439	-582.7049560546873	937.610595703125	826.8455810546876	-637.6794433593748	1005.137390136719	760.9958496093751	-637.2479858398436	943.3287353515625	1042.982543945312	-177.6168365478513	820.4794921875	1016.299926757813	-351.6600036621091	942.2249755859375	1041.608154296875	-522.6960449218748	875.9136962890625	905.3018798828125	-166.7801818847654	843.2838134765625	639.1986694335938	-187.7911529541014	901.362548828125	640.2420043945312	-179.071075439453	880.3334350585938	538.560302734375	-210.9397583007811	819.7167358398438	561.712890625	-206.172882080078	689.6796875	384.4801940917969	-202.5367736816405	719.642333984375	334.4491882324219	-217.1303100585937	663.54638671875	270.5579223632813	-235.5122680664062	618.073974609375	314.7674560546876	-223.7624053955078	460.803466796875	185.505844116211	-303.2905273437499	544.630615234375	34.06917953491217	-242.5190582275391	592.733154296875	29.02877998352058	-339.8141784667969	932.8231811523438	933.2142333984376	-529.7478027343748	1118.004638671875	689.6558837890626	-504.5075683593748	1064.740600585938	687.0999145507814	-529.9357910156249	1086.38720703125	585.9542846679689	-499.5363464355468	1140.876953125	613.5664062500001	-479.7181701660155	1172.595581054688	336.2495727539064	-483.1401367187499	1120.160522460938	305.7825317382814	-489.4758300781249	1130.3251953125	220.0424652099611	-473.2454223632812	1190.991333007812	237.1359405517579	-461.4148864746093	1115.17919921875	36.57860565185556	-402.887939453125	1295.32275390625	23.8717327117921	-460.8708801269531	1324.731567382812	47.99878311157234	-363.1553649902344	
